<?xml version="1.0"?>
<svg width="148" height="51" xmlns="http://www.w3.org/2000/svg" xmlns:svg="http://www.w3.org/2000/svg" xmlns:xlink="http://www.w3.org/1999/xlink">
 <!-- Created with SVG-edit - http://svg-edit.googlecode.com/ -->
 <defs>
  <symbol id="svg_64" height="512" width="512" xmlns:xlink="http://www.w3.org/1999/xlink" xmlns="http://www.w3.org/2000/svg" xmlns:svg="http://www.w3.org/2000/svg">
   <defs>
    <linearGradient id="svg_53">
     <stop stop-color="#000000" stop-opacity="0" offset="0" id="svg_63"/>
     <stop stop-color="#000000" stop-opacity="0.403922" offset="1" id="svg_62"/>
    </linearGradient>
    <linearGradient id="svg_59">
     <stop stop-color="#ffffff" stop-opacity="0" id="svg_61" offset="0"/>
     <stop stop-color="#ffffff" stop-opacity="0.40404" id="svg_60" offset="1"/>
    </linearGradient>
    <linearGradient gradientUnits="userSpaceOnUse" y2="892.36218" x2="320" y1="882.36218" x1="220" id="svg_58" xlink:href="#svg_55"/>
    <linearGradient id="svg_55">
     <stop stop-color="#ffffff" stop-opacity="0" id="svg_57" offset="0"/>
     <stop stop-color="#ffffff" stop-opacity="0.40404" id="svg_56" offset="1"/>
    </linearGradient>
    <linearGradient gradientTransform="translate(-13.5,-47.774997)" y2="937.36218" x2="147.5" y1="917.36218" x1="267.5" gradientUnits="userSpaceOnUse" id="svg_54" xlink:href="#svg_53"/>
    <linearGradient y2="937.36218" x2="147.5" y1="917.36218" x1="267.5" gradientTransform="translate(-13.5,-55.314358)" gradientUnits="userSpaceOnUse" id="svg_52" xlink:href="#svg_53"/>
   </defs>
   <metadata id="svg_51">image/svg+xml</metadata>
   <g transform="translate(0,-540.36218)" id="svg_2">
    <g transform="translate(5.25,0)" id="svg_3">
     <g id="svg_35" transform="translate(-355,-2.5)">
      <path fill="#ffff00" fill-rule="nonzero" stroke="#808000" stroke-width="5" stroke-linecap="round" stroke-linejoin="round" stroke-miterlimit="4" stroke-dashoffset="0" transform="matrix(0.5,0,0,0.5,250,706.36218)" d="m1000,412c0,22.0914 -44.771545,40 -100,40c-55.228455,0 -100,-17.9086 -100,-40c0,-22.0914 44.771545,-40 100,-40c55.228455,0 100,17.9086 100,40z" id="svg_50"/>
      <path fill="#ffff00" fill-rule="nonzero" stroke="#808000" stroke-width="5" stroke-linecap="round" stroke-linejoin="round" stroke-miterlimit="4" stroke-dashoffset="0" transform="matrix(0.5,0,0,0.5,250,696.36218)" d="m1000,412c0,22.0914 -44.771545,40 -100,40c-55.228455,0 -100,-17.9086 -100,-40c0,-22.0914 44.771545,-40 100,-40c55.228455,0 100,17.9086 100,40z" id="svg_49"/>
      <path fill="#ffff00" fill-rule="nonzero" stroke="#808000" stroke-width="5" stroke-linecap="round" stroke-linejoin="round" stroke-miterlimit="4" stroke-dashoffset="0" transform="matrix(0.5,0,0,0.5,250,686.36218)" d="m1000,412c0,22.0914 -44.771545,40 -100,40c-55.228455,0 -100,-17.9086 -100,-40c0,-22.0914 44.771545,-40 100,-40c55.228455,0 100,17.9086 100,40z" id="svg_48"/>
      <path fill="#ffff00" fill-rule="nonzero" stroke="#808000" stroke-width="5" stroke-linecap="round" stroke-linejoin="round" stroke-miterlimit="4" stroke-dashoffset="0" transform="matrix(0.5,0,0,0.5,250,676.36218)" d="m1000,412c0,22.0914 -44.771545,40 -100,40c-55.228455,0 -100,-17.9086 -100,-40c0,-22.0914 44.771545,-40 100,-40c55.228455,0 100,17.9086 100,40z" id="svg_47"/>
      <path fill="#ffff00" fill-rule="nonzero" stroke="#808000" stroke-width="5" stroke-linecap="round" stroke-linejoin="round" stroke-miterlimit="4" stroke-dashoffset="0" transform="matrix(0.5,0,0,0.5,250,666.36218)" d="m1000,412c0,22.0914 -44.771545,40 -100,40c-55.228455,0 -100,-17.9086 -100,-40c0,-22.0914 44.771545,-40 100,-40c55.228455,0 100,17.9086 100,40z" id="svg_46"/>
      <path fill="#ffff00" fill-rule="nonzero" stroke="#808000" stroke-width="5" stroke-linecap="round" stroke-linejoin="round" stroke-miterlimit="4" stroke-dashoffset="0" transform="matrix(0.5,0,0,0.5,250,656.36218)" d="m1000,412c0,22.0914 -44.771545,40 -100,40c-55.228455,0 -100,-17.9086 -100,-40c0,-22.0914 44.771545,-40 100,-40c55.228455,0 100,17.9086 100,40z" id="svg_45"/>
      <path fill="#ffff00" fill-rule="nonzero" stroke="#808000" stroke-width="5" stroke-linecap="round" stroke-linejoin="round" stroke-miterlimit="4" stroke-dashoffset="0" transform="matrix(0.5,0,0,0.5,250,646.36218)" d="m1000,412c0,22.0914 -44.771545,40 -100,40c-55.228455,0 -100,-17.9086 -100,-40c0,-22.0914 44.771545,-40 100,-40c55.228455,0 100,17.9086 100,40z" id="svg_44"/>
      <path fill="#ffff00" fill-rule="nonzero" stroke="#808000" stroke-width="5" stroke-linecap="round" stroke-linejoin="round" stroke-miterlimit="4" stroke-dashoffset="0" transform="matrix(0.5,0,0,0.5,250,636.36218)" d="m1000,412c0,22.0914 -44.771545,40 -100,40c-55.228455,0 -100,-17.9086 -100,-40c0,-22.0914 44.771545,-40 100,-40c55.228455,0 100,17.9086 100,40z" id="svg_43"/>
      <path fill="#ffff00" fill-rule="nonzero" stroke="#808000" stroke-width="4" stroke-linecap="round" stroke-linejoin="round" stroke-miterlimit="4" stroke-dashoffset="0" transform="matrix(0.5,0,0,0.5,250,626.36218)" d="m1000,412c0,22.0914 -44.771545,40 -100,40c-55.228455,0 -100,-17.9086 -100,-40c0,-22.0914 44.771545,-40 100,-40c55.228455,0 100,17.9086 100,40z" id="svg_42"/>
      <path fill="#ffff00" fill-rule="nonzero" stroke="#808000" stroke-width="4" stroke-linecap="round" stroke-linejoin="round" stroke-miterlimit="4" stroke-dashoffset="0" transform="matrix(0.5,0,0,0.5,250,616.36218)" d="m1000,412c0,22.0914 -44.771545,40 -100,40c-55.228455,0 -100,-17.9086 -100,-40c0,-22.0914 44.771545,-40 100,-40c55.228455,0 100,17.9086 100,40z" id="svg_41"/>
      <path fill="#ffff5d" fill-rule="nonzero" stroke="#808000" stroke-width="8" stroke-linecap="round" stroke-linejoin="round" stroke-miterlimit="4" stroke-dashoffset="0" transform="matrix(0.5,0,0,0.5,250,606.36218)" d="m1000,412c0,22.0914 -44.771545,40 -100,40c-55.228455,0 -100,-17.9086 -100,-40c0,-22.0914 44.771545,-40 100,-40c55.228455,0 100,17.9086 100,40z" id="svg_40"/>
      <path fill="none" stroke="#808000" stroke-width="4" stroke-linecap="round" stroke-linejoin="round" stroke-miterlimit="4" stroke-dashoffset="0" id="svg_39" d="m700,792.362183c-27.614258,0 -50,8.954285 -50,20l0,100c0,11.045715 22.385742,20 50,20c27.614258,0 50,-8.954285 50,-20l0,-100c0,-11.045715 -22.385742,-20 -50,-20z"/>
      <path fill="#dada00" fill-rule="nonzero" transform="matrix(0.3645,0,0,0.3645,371.95,662.18818)" d="m1009.73938,412c0,22.727783 -49.132019,41.152252 -109.73938,41.152252c-60.607422,0 -109.73938,-18.424469 -109.73938,-41.152252c0,-22.727783 49.131958,-41.152252 109.73938,-41.152252c60.607361,0 109.73938,18.424469 109.73938,41.152252z" id="svg_38"/>
      <g transform="matrix(0.8660254,0.17783133,-0.5,0.3080129,680.12993,511.44004)" id="svg_36">
       <path fill="#808000" id="svg_37" d="m436.480621,704.794189l-17.567993,0l-2.544006,18.527954l3.888,0c1.968018,-2.35199 3.600006,-3.167969 6.240021,-3.167969c4.559967,0 7.439972,3.119995 7.439972,8.159973c0,4.895996 -2.832001,7.872009 -7.439972,7.872009c-3.696014,0 -5.952026,-1.872009 -6.960022,-5.711975l-4.223999,0c0.576019,2.783997 1.056,4.127991 2.063995,5.375977c1.920013,2.592041 5.376007,4.080017 9.216003,4.080017c6.864014,0 11.664001,-4.992004 11.664001,-12.192017c0,-6.719971 -4.463989,-11.328003 -10.992004,-11.328003c-2.399994,0 -4.319977,0.624023 -6.287994,2.064026l1.343994,-9.504028l14.160004,0l0,-4.175964m17.07077,0c-3.167999,0 -6.048004,1.391968 -7.824005,3.743958c-2.208008,2.976013 -3.312012,7.536011 -3.312012,13.824036c0,11.471985 3.840027,17.567993 11.136017,17.567993c7.199982,0 11.135986,-6.096008 11.135986,-17.280029c0,-6.623962 -1.056,-11.039978 -3.312012,-14.112c-1.776001,-2.399963 -4.607971,-3.743958 -7.823975,-3.743958m0,3.743958c4.559967,0 6.815979,4.608032 6.815979,13.728027c0,9.64801 -2.208008,14.159973 -6.911987,14.159973c-4.463989,0 -6.720001,-4.703979 -6.720001,-14.015991c0,-9.311951 2.256012,-13.872009 6.81601,-13.872009"/>
      </g>
     </g>
     <g id="svg_22" transform="translate(-142.5,17.5)">
      <path fill="#ffff00" fill-rule="nonzero" stroke="#808000" stroke-width="5" stroke-linecap="round" stroke-linejoin="round" stroke-miterlimit="4" stroke-dashoffset="0" transform="matrix(0.5,0,0,0.5,130,686.36218)" d="m1000,412c0,22.0914 -44.771545,40 -100,40c-55.228455,0 -100,-17.9086 -100,-40c0,-22.0914 44.771545,-40 100,-40c55.228455,0 100,17.9086 100,40z" id="svg_34"/>
      <path fill="#ffff00" fill-rule="nonzero" stroke="#808000" stroke-width="5" stroke-linecap="round" stroke-linejoin="round" stroke-miterlimit="4" stroke-dashoffset="0" transform="matrix(0.5,0,0,0.5,130,676.36218)" d="m1000,412c0,22.0914 -44.771545,40 -100,40c-55.228455,0 -100,-17.9086 -100,-40c0,-22.0914 44.771545,-40 100,-40c55.228455,0 100,17.9086 100,40z" id="svg_33"/>
      <path fill="#ffff00" fill-rule="nonzero" stroke="#808000" stroke-width="5" stroke-linecap="round" stroke-linejoin="round" stroke-miterlimit="4" stroke-dashoffset="0" transform="matrix(0.5,0,0,0.5,130,666.36218)" d="m1000,412c0,22.0914 -44.771545,40 -100,40c-55.228455,0 -100,-17.9086 -100,-40c0,-22.0914 44.771545,-40 100,-40c55.228455,0 100,17.9086 100,40z" id="svg_32"/>
      <path fill="#ffff00" fill-rule="nonzero" stroke="#808000" stroke-width="5" stroke-linecap="round" stroke-linejoin="round" stroke-miterlimit="4" stroke-dashoffset="0" transform="matrix(0.5,0,0,0.5,130,656.36218)" d="m1000,412c0,22.0914 -44.771545,40 -100,40c-55.228455,0 -100,-17.9086 -100,-40c0,-22.0914 44.771545,-40 100,-40c55.228455,0 100,17.9086 100,40z" id="svg_31"/>
      <path fill="#ffff00" fill-rule="nonzero" stroke="#808000" stroke-width="5" stroke-linecap="round" stroke-linejoin="round" stroke-miterlimit="4" stroke-dashoffset="0" transform="matrix(0.5,0,0,0.5,130,646.36218)" d="m1000,412c0,22.0914 -44.771545,40 -100,40c-55.228455,0 -100,-17.9086 -100,-40c0,-22.0914 44.771545,-40 100,-40c55.228455,0 100,17.9086 100,40z" id="svg_30"/>
      <path fill="#ffff00" fill-rule="nonzero" stroke="#808000" stroke-width="4" stroke-linecap="round" stroke-linejoin="round" stroke-miterlimit="4" stroke-dashoffset="0" transform="matrix(0.5,0,0,0.5,130,636.36218)" d="m1000,412c0,22.0914 -44.771545,40 -100,40c-55.228455,0 -100,-17.9086 -100,-40c0,-22.0914 44.771545,-40 100,-40c55.228455,0 100,17.9086 100,40z" id="svg_29"/>
      <path fill="#ffff00" fill-rule="nonzero" stroke="#808000" stroke-width="4" stroke-linecap="round" stroke-linejoin="round" stroke-miterlimit="4" stroke-dashoffset="0" transform="matrix(0.5,0,0,0.5,130,626.36218)" d="m1000,412c0,22.0914 -44.771545,40 -100,40c-55.228455,0 -100,-17.9086 -100,-40c0,-22.0914 44.771545,-40 100,-40c55.228455,0 100,17.9086 100,40z" id="svg_28"/>
      <path fill="#ffff5d" fill-rule="nonzero" stroke="#808000" stroke-width="8" stroke-linecap="round" stroke-linejoin="round" stroke-miterlimit="4" stroke-dashoffset="0" transform="matrix(0.5,0,0,0.5,130,616.36218)" d="m1000,412c0,22.0914 -44.771545,40 -100,40c-55.228455,0 -100,-17.9086 -100,-40c0,-22.0914 44.771545,-40 100,-40c55.228455,0 100,17.9086 100,40z" id="svg_27"/>
      <path fill="none" stroke="#808000" stroke-width="4" stroke-linecap="round" stroke-linejoin="round" stroke-miterlimit="4" stroke-dashoffset="0" id="svg_26" d="m580,802.362183c-27.614258,0 -50,8.954285 -50,20l0,70c0,11.045715 22.385742,20 50,20c27.614258,0 50,-8.954285 50,-20l0,-70c0,-11.045715 -22.385742,-20 -50,-20z"/>
      <path fill="#dada00" fill-rule="nonzero" transform="matrix(0.3645,0,0,0.3645,251.95,672.18818)" d="m1009.73938,412c0,22.727783 -49.132019,41.152252 -109.73938,41.152252c-60.607422,0 -109.73938,-18.424469 -109.73938,-41.152252c0,-22.727783 49.131958,-41.152252 109.73938,-41.152252c60.607361,0 109.73938,18.424469 109.73938,41.152252z" id="svg_25"/>
      <g transform="matrix(0.8660254,0.17783133,-0.5,0.3080129,560.12993,521.44004)" id="svg_23">
       <path fill="#808000" id="svg_24" d="m436.480621,704.794189l-17.567993,0l-2.544006,18.527954l3.888,0c1.968018,-2.35199 3.600006,-3.167969 6.240021,-3.167969c4.559967,0 7.439972,3.119995 7.439972,8.159973c0,4.895996 -2.832001,7.872009 -7.439972,7.872009c-3.696014,0 -5.952026,-1.872009 -6.960022,-5.711975l-4.223999,0c0.576019,2.783997 1.056,4.127991 2.063995,5.375977c1.920013,2.592041 5.376007,4.080017 9.216003,4.080017c6.864014,0 11.664001,-4.992004 11.664001,-12.192017c0,-6.719971 -4.463989,-11.328003 -10.992004,-11.328003c-2.399994,0 -4.319977,0.624023 -6.287994,2.064026l1.343994,-9.504028l14.160004,0l0,-4.175964m17.07077,0c-3.167999,0 -6.048004,1.391968 -7.824005,3.743958c-2.208008,2.976013 -3.312012,7.536011 -3.312012,13.824036c0,11.471985 3.840027,17.567993 11.136017,17.567993c7.199982,0 11.135986,-6.096008 11.135986,-17.280029c0,-6.623962 -1.056,-11.039978 -3.312012,-14.112c-1.776001,-2.399963 -4.607971,-3.743958 -7.823975,-3.743958m0,3.743958c4.559967,0 6.815979,4.608032 6.815979,13.728027c0,9.64801 -2.208008,14.159973 -6.911987,14.159973c-4.463989,0 -6.720001,-4.703979 -6.720001,-14.015991c0,-9.311951 2.256012,-13.872009 6.81601,-13.872009"/>
      </g>
     </g>
     <path fill="#adfa66" fill-rule="evenodd" stroke="#2e5c02" stroke-width="5" stroke-linejoin="bevel" stroke-miterlimit="3.325" d="m35,832.362183l230,0l20,70l-270,0l20,-70z" id="svg_21"/>
     <path fill="#57ae06" stroke="#2e5c02" stroke-width="5" stroke-linejoin="round" stroke-miterlimit="3.325" d="m15,902.362183l0,15l270,0l0,-15l-270,0z" id="svg_20"/>
     <path fill="#57ae06" stroke="#2e5c02" stroke-width="5" stroke-miterlimit="3.325" d="m15,917.362183l0,15l270,0l0,-15l-270,0z" id="svg_19"/>
     <path fill="#57ae06" stroke="#2e5c02" stroke-width="5" stroke-miterlimit="3.325" d="m15,932.362183l0,15l270,0l0,-15l-270,0z" id="svg_18"/>
     <path fill="#57ae06" d="m88.5625,842.362183c-3.5187,5.73114 -17.211098,10 -33.5625,10c-0.841499,0 -1.673599,-0.008972 -2.5,-0.031311l-7.5,30.03125c16.351398,0 30.0438,4.26886 33.5625,10l142.875,0c3.373901,-5.495178 16.106598,-9.635925 31.5625,-9.96875l-6,-30.0625c-0.663696,0.014282 -1.326797,0.031311 -2,0.031311c-16.351395,0 -30.043793,-4.26886 -33.5625,-10l-122.875,0zm61.4375,8.75c23.013306,0 41.656204,6.994995 41.656204,15.625c0,8.630005 -18.642899,15.625 -41.656204,15.625c-23.013298,0 -41.656197,-6.994995 -41.656197,-15.625c0,-8.630005 18.642899,-15.625 41.656197,-15.625z" id="svg_17"/>
     <g id="svg_14" transform="matrix(1,0,0,0.39064905,-1398.3308,457.20068)">
      <g font-size="64px" font-style="normal" font-weight="normal" text-anchor="middle" fill="#2e5c02" font-family="Nimbus Roman No9 L" id="svg_15" transform="translate(-2.669247,-12.799203)">
       <path fill="#2e5c02" d="m1552.25,1081.623047l0,7.25l-4.25,0l0,-7c-4.833374,0.000122 -8.666748,-0.749878 -11.5,-2.25l0,-5.25c4.166626,1.833374 8,2.750122 11.5,2.75l0,-13.5c-4.333374,-1.333252 -7.25,-2.833252 -8.75,-4.5c-1.5,-1.833252 -2.25,-4.083252 -2.25,-6.75c0,-2.666626 0.916626,-4.916626 2.75,-6.75c1.833252,-1.833252 4.583252,-2.999878 8.25,-3.5l0,-5.5l4.25,0l0,5.5c3.833252,0.166748 7.333252,0.916748 10.5,2.25l-2,4.75c-3,-1.333252 -5.833374,-2.083252 -8.5,-2.25l0,13c4.5,1.666748 7.5,3.333374 9,5c1.5,1.666748 2.25,3.750122 2.25,6.25c0,5.833374 -3.75,9.333374 -11.25,10.5m-4.25,-23.25l0,-11.5c-3.666748,0.666748 -5.5,2.500122 -5.5,5.5c0,2.833374 1.833252,4.833374 5.5,6m4.25,7l0,11.5c3.833252,-0.499878 5.75,-2.416626 5.75,-5.75c0,-2.666626 -1.916748,-4.583252 -5.75,-5.75" id="svg_16"/>
      </g>
     </g>
     <g id="svg_4" transform="translate(-50,0)">
      <path fill="#ffff00" fill-rule="nonzero" stroke="#808000" stroke-width="5" stroke-linecap="round" stroke-linejoin="round" stroke-miterlimit="4" stroke-dashoffset="0" transform="matrix(0.5,0,0,0.5,0,726.36218)" d="m1000,412c0,22.0914 -44.771545,40 -100,40c-55.228455,0 -100,-17.9086 -100,-40c0,-22.0914 44.771545,-40 100,-40c55.228455,0 100,17.9086 100,40z" id="svg_13"/>
      <path fill="#ffff00" fill-rule="nonzero" stroke="#808000" stroke-width="5" stroke-linecap="round" stroke-linejoin="round" stroke-miterlimit="4" stroke-dashoffset="0" transform="matrix(0.5,0,0,0.5,0,716.36218)" d="m1000,412c0,22.0914 -44.771545,40 -100,40c-55.228455,0 -100,-17.9086 -100,-40c0,-22.0914 44.771545,-40 100,-40c55.228455,0 100,17.9086 100,40z" id="svg_12"/>
      <path fill="#ffff00" fill-rule="nonzero" stroke="#808000" stroke-width="4" stroke-linecap="round" stroke-linejoin="round" stroke-miterlimit="4" stroke-dashoffset="0" transform="matrix(0.5,0,0,0.5,0,706.36218)" d="m1000,412c0,22.0914 -44.771545,40 -100,40c-55.228455,0 -100,-17.9086 -100,-40c0,-22.0914 44.771545,-40 100,-40c55.228455,0 100,17.9086 100,40z" id="svg_11"/>
      <path fill="#ffff00" fill-rule="nonzero" stroke="#808000" stroke-width="4" stroke-linecap="round" stroke-linejoin="round" stroke-miterlimit="4" stroke-dashoffset="0" transform="matrix(0.5,0,0,0.5,0,696.36218)" d="m1000,412c0,22.0914 -44.771545,40 -100,40c-55.228455,0 -100,-17.9086 -100,-40c0,-22.0914 44.771545,-40 100,-40c55.228455,0 100,17.9086 100,40z" id="svg_10"/>
      <path fill="#ffff5d" fill-rule="nonzero" stroke="#808000" stroke-width="8" stroke-linecap="round" stroke-linejoin="round" stroke-miterlimit="4" stroke-dashoffset="0" transform="matrix(0.5,0,0,0.5,0,686.36218)" d="m1000,412c0,22.0914 -44.771545,40 -100,40c-55.228455,0 -100,-17.9086 -100,-40c0,-22.0914 44.771545,-40 100,-40c55.228455,0 100,17.9086 100,40z" id="svg_9"/>
      <path fill="none" stroke="#808000" stroke-width="4" stroke-linecap="round" stroke-linejoin="round" stroke-miterlimit="4" stroke-dashoffset="0" id="svg_8" d="m450,872.362183c-27.614258,0 -50,8.954285 -50,20l0,40c0,11.045715 22.385742,20 50,20c27.614258,0 50,-8.954285 50,-20l0,-40c0,-11.045715 -22.385742,-20 -50,-20z"/>
      <path fill="#dada00" fill-rule="nonzero" transform="matrix(0.3645,0,0,0.3645,121.95,742.18818)" d="m1009.73938,412c0,22.727783 -49.132019,41.152252 -109.73938,41.152252c-60.607422,0 -109.73938,-18.424469 -109.73938,-41.152252c0,-22.727783 49.131958,-41.152252 109.73938,-41.152252c60.607361,0 109.73938,18.424469 109.73938,41.152252z" id="svg_7"/>
      <g transform="matrix(0.8660254,0.17783133,-0.5,0.3080129,430.12993,591.44004)" id="svg_5">
       <path fill="#808000" id="svg_6" d="m436.480621,704.794189l-17.567993,0l-2.544006,18.527954l3.888,0c1.968018,-2.35199 3.600006,-3.167969 6.240021,-3.167969c4.559967,0 7.439972,3.119995 7.439972,8.159973c0,4.895996 -2.832001,7.872009 -7.439972,7.872009c-3.696014,0 -5.952026,-1.872009 -6.960022,-5.711975l-4.223999,0c0.576019,2.783997 1.056,4.127991 2.063995,5.375977c1.920013,2.592041 5.376007,4.080017 9.216003,4.080017c6.864014,0 11.664001,-4.992004 11.664001,-12.192017c0,-6.719971 -4.463989,-11.328003 -10.992004,-11.328003c-2.399994,0 -4.319977,0.624023 -6.287994,2.064026l1.343994,-9.504028l14.160004,0l0,-4.175964m17.07077,0c-3.167999,0 -6.048004,1.391968 -7.824005,3.743958c-2.208008,2.976013 -3.312012,7.536011 -3.312012,13.824036c0,11.471985 3.840027,17.567993 11.136017,17.567993c7.199982,0 11.135986,-6.096008 11.135986,-17.280029c0,-6.623962 -1.056,-11.039978 -3.312012,-14.112c-1.776001,-2.399963 -4.607971,-3.743958 -7.823975,-3.743958m0,3.743958c4.559967,0 6.815979,4.608032 6.815979,13.728027c0,9.64801 -2.208008,14.159973 -6.911987,14.159973c-4.463989,0 -6.720001,-4.703979 -6.720001,-14.015991c0,-9.311951 2.256012,-13.872009 6.81601,-13.872009"/>
      </g>
     </g>
    </g>
   </g>
  </symbol>
 </defs>
 <g>
  <title>Layer 1</title>
  <use x="-20.25" y="-249.500006" transform="matrix(0.3125,0,0,0.3125,0,0) " xlink:href="#svg_64" id="svg_65"/>
 </g>
</svg>